<svg width="84" height="24" viewBox="0 0 84 24" fill="none" xmlns="http://www.w3.org/2000/svg">
<g clip-path="url(#clip0_406_54)">
<path d="M12.082 7.45751L10.1504 12.0556C9.9047 11.9326 9.32861 11.7968 8.78216 11.7968C8.23572 11.7968 7.68504 11.9326 7.15554 12.1913C6.10501 12.7258 5.32983 13.7905 5.32983 15.3303V23.7544H0.521973V7.36419H5.19427V9.66323H5.28323C6.38035 8.19982 8.05357 7.11816 10.2266 7.11816C11.0188 7.12241 11.777 7.27511 12.082 7.45751Z" fill="black"/>
<path d="M11.1543 15.6056C11.1543 10.8676 14.3948 7.12207 19.2493 7.12207C23.6462 7.12207 26.7936 10.3373 26.7936 14.8591C26.7936 15.6523 26.7173 16.3988 26.5521 17.1115H15.5386C16.0426 18.8336 17.5295 20.174 19.7661 20.174C20.9987 20.174 22.7482 19.7329 23.6928 19.0033L25.1839 22.5961C23.7987 23.542 21.685 23.9959 19.8296 23.9959C14.6363 24.0001 11.1543 20.6491 11.1543 15.6056ZM15.4411 14.0956H22.3627C22.3627 11.9916 20.931 10.8803 19.1815 10.8803C17.2075 10.8845 15.869 12.1613 15.4411 14.0956Z" fill="black"/>
<path d="M68.0439 0C69.6579 0 70.9795 1.32344 70.9795 2.93956C70.9795 4.55567 69.6579 5.87911 68.0439 5.87911C66.43 5.87911 65.1084 4.55567 65.1084 2.93956C65.1084 1.32344 66.43 0 68.0439 0ZM70.4458 23.754H65.6379V7.36373H70.4458V23.754Z" fill="black"/>
<path d="M40.1286 0.296875L40.1116 8.92042H40.0184C38.6968 7.65637 37.265 7.13887 35.3927 7.13887C30.784 7.13887 27.7256 10.8547 27.7256 15.563C27.7256 20.2714 30.5849 24 35.2402 24C37.1888 24 39.0272 23.3297 40.2133 21.8069H40.3488V23.7582H44.928V0.296875H40.1286ZM40.3616 19.8472H40.2006L39.1289 18.7317C38.4299 19.4316 37.4768 19.8472 36.3585 19.8472C34.0033 19.8472 32.3555 17.9809 32.3555 15.563C32.3555 13.1452 34.0033 11.2788 36.3585 11.2788C38.7138 11.2788 40.3616 13.1452 40.3616 15.563V19.8472Z" fill="black"/>
<path d="M58.4914 0.296875L58.4744 8.92042H58.3812C57.0596 7.65637 55.6278 7.13887 53.7555 7.13887C49.1468 7.13887 46.0884 10.8547 46.0884 15.563C46.0884 20.2714 48.9477 24 53.603 24C55.5516 24 57.39 23.3297 58.5761 21.8069H58.7116V23.7582H63.2908V0.296875H58.4914ZM58.6947 19.8472H58.5337L57.462 18.7317C56.7631 19.4316 55.8058 19.8472 54.6917 19.8472C52.3365 19.8472 50.6887 17.9809 50.6887 15.563C50.6887 13.1452 52.3365 11.2788 54.6917 11.2788C57.0469 11.2788 58.6947 13.1452 58.6947 15.563V19.8472Z" fill="black"/>
<path d="M79.7692 7.36403H83.2851V11.4616H79.7692V23.7543H74.9613V11.4616H71.4624V7.36403H74.9613V2.91016H79.7692V7.36403Z" fill="black"/>
</g>
<defs>
<clipPath id="clip0_406_54">
<rect width="82.7586" height="24" fill="white" transform="translate(0.521973)"/>
</clipPath>
</defs>
</svg>
